<svg width="32" height="32" viewBox="0 0 32 32" fill="none" xmlns="http://www.w3.org/2000/svg">
<path d="M0 16C0 22.8794 4.342 28.7441 10.4347 31.0047L11.8261 15.9999L10.4347 0.995178C4.342 3.25593 0 9.12055 0 16Z" fill="#6DA544"/>
<path d="M31.9999 16C31.9999 7.1635 24.8364 0 15.9999 0C14.0428 0 12.1679 0.352063 10.4346 0.995188V31.0048C12.1679 31.648 14.0428 32 15.9999 32C24.8364 32 31.9999 24.8365 31.9999 16Z" fill="#D80027"/>
<path d="M10.4348 21.5652C13.5084 21.5652 16 19.0736 16 16C16 12.9264 13.5084 10.4348 10.4348 10.4348C7.36125 10.4348 4.86963 12.9264 4.86963 16C4.86963 19.0736 7.36125 21.5652 10.4348 21.5652Z" fill="#FFDA44"/>
<path d="M7.3042 13.2174V16.6956C7.3042 18.4245 8.7057 19.8261 10.4346 19.8261C12.1636 19.8261 13.5651 18.4246 13.5651 16.6956V13.2174H7.3042Z" fill="#D80027"/>
<path d="M10.4346 17.7391C9.85924 17.7391 9.39111 17.271 9.39111 16.6956V15.3044H11.4781V16.6957C11.4781 17.271 11.0099 17.7391 10.4346 17.7391Z" fill="#F0F0F0"/>
</svg>
