<svg width="32" height="32" viewBox="0 0 32 32" fill="none" xmlns="http://www.w3.org/2000/svg">
<path d="M0 16C0 17.9571 0.352063 19.8319 0.995188 21.5652L16 22.9565L31.0048 21.5652C31.6479 19.8319 32 17.9571 32 16C32 14.0429 31.6479 12.1681 31.0048 10.4348L16 9.0435L0.995188 10.4348C0.352063 12.1681 0 14.0429 0 16H0Z" fill="#FFDA44"/>
<path d="M31.0047 10.4348C28.7441 4.34206 22.8794 0 15.9999 0C9.12049 0 3.2558 4.34206 0.995117 10.4348H31.0047Z" fill="#D80027"/>
<path d="M0.995117 21.5652C3.2558 27.6579 9.12049 32 15.9999 32C22.8794 32 28.7441 27.6579 31.0047 21.5652H0.995117Z" fill="#D80027"/>
</svg>
