<svg xmlns="http://www.w3.org/2000/svg" viewBox="0 0 473.677 473.677" xmlns:v="https://vecta.io/nano"><g fill="#efecec"><path d="M236.842 0h0 0z"/><path d="M236.842 0h-.007.007z"/></g><path d="M88.101 421.095H385.58l.101-.079H88.003c.03.03.068.053.098.079z" fill="#3757a6"/><path d="M318.881 104.977h114.715c-13.38-19.917-29.718-37.665-48.368-52.676H300.1c7.517 15.195 13.77 33.044 18.781 52.676zm14.461 105.344h138.824c-2.038-18.268-6.152-35.907-12.094-52.676H328.851c2.255 17.079 3.75 34.775 4.491 52.676zm-4.443 105.351h131.285a235.31 235.31 0 0 0 12.023-52.676h-138.85c-.733 17.902-2.214 35.594-4.458 52.676zm-28.63 105.344h85.412a238.25 238.25 0 0 0 48.132-52.668H318.967c-4.989 19.618-11.211 37.463-18.698 52.668z" fill="#efecec"/><path d="M292.607 52.302h92.622C344.624 19.61 293.037 0 236.842 0h0-.007c-.247 0-.49.015-.737.015 26.876.146 40.713 20.332 56.509 52.287zm29.916 105.343h137.545a235.85 235.85 0 0 0-26.476-52.668H312.554c4.207 16.484 7.531 34.206 9.969 52.668zm149.643 52.676H326.263a637.71 637.71 0 0 1 .015 52.676h145.929c.942-8.597 1.47-17.31 1.47-26.155 0-8.967-.539-17.808-1.511-26.521zM311.349 368.348h122.464a236.17 236.17 0 0 0 26.375-52.676H321.282c-2.431 18.459-5.748 36.185-9.933 52.676zm-75.251 105.314l.737.015c56.355 0 108.081-19.719 148.742-52.582h-92.341c-15.812 32.108-30.187 52.421-57.138 52.567z" fill="#3757a6"/><path d="M300.101 52.302C284.301 20.347 262.975.161 236.098.015 180.195.191 128.884 19.749 88.46 52.302h211.641z" fill="#4166af"/><path d="M300.101 52.302H88.456C69.81 67.312 53.472 85.06 40.088 104.977h278.789c-5.007-19.632-11.26-37.481-18.776-52.675z" fill="#efefef"/><path d="M318.881 104.977H40.092c-10.905 16.237-19.823 33.91-26.476 52.668h315.235c-2.442-18.462-5.771-36.184-9.97-52.668z" fill="#4166af"/><path d="M13.616 157.645C7.67 174.414 3.56 192.053 1.522 210.321h331.82c-.737-17.901-2.236-35.601-4.491-52.676H13.616z" fill="#efefef"/><path d="M0 236.835v.007c0 8.844.527 17.557 1.477 26.155h331.88a637.71 637.71 0 0 0-.015-52.676H1.518C.55 219.034 0 227.875 0 236.835z" fill="#4166af"/><path d="M13.496 315.672h315.403c2.244-17.082 3.725-34.774 4.454-52.676H1.477c2.001 18.269 6.096 35.901 12.019 52.676z" fill="#efefef"/><path d="M39.871 368.348h279.096c4.185-16.491 7.502-34.217 9.932-52.676H13.496c6.619 18.751 15.501 36.424 26.375 52.676z" fill="#4166af"/><path d="M39.871 368.348c13.309 19.895 29.565 37.65 48.132 52.668h212.266c7.487-15.205 13.709-33.05 18.698-52.668H39.871z" fill="#efefef"/><path d="M236.098 473.662c26.951-.146 48.323-20.459 64.134-52.567H88.101c40.484 32.717 91.933 52.391 147.997 52.567z" fill="#4166af"/><g fill="#3757a6"><path d="M236.835 0C106.043 0 .007 106.032 0 236.835l1.477 26.162h235.365L236.835 0z"/><path d="M98.968 44.329C75.85 60.918 55.817 81.526 39.954 105.19h59.014V44.329zM13.672 157.47C4.85 182.289 0 208.994 0 236.835l1.477 26.162h97.491V157.47H13.672zm223.17-52.28L236.835 0c-30.186 0-59.037 5.71-85.588 16.009v89.181h85.595zm-85.592 52.27h85.59v105.53h-85.59z"/></g><path d="M151.247 105.19V16.009a235.89 235.89 0 0 0-52.279 28.316v60.862H39.954c-10.804 16.133-19.663 33.671-26.278 52.279h85.296v105.527 1.87h52.279v-1.87V157.47h85.595v-52.28h-85.599 0z" fill="#efefef"/></svg>